<svg xmlns="http://www.w3.org/2000/svg" width="1280" height="640" viewBox="0 0 1280 640">
  <defs><linearGradient id="bg" x1="0" x2="1" y1="0" y2="1"><stop stop-color="#071021"/><stop offset="1" stop-color="#111b38"/></linearGradient><radialGradient id="glow"><stop stop-color="#4f7cff" stop-opacity=".32"/><stop offset="1" stop-color="#4f7cff" stop-opacity="0"/></radialGradient></defs>
  <style>.eyebrow{font:700 20px Arial,sans-serif;letter-spacing:4px;fill:#4f7cff}.title{font:800 70px Arial,sans-serif;fill:#f8fbff}.subtitle{font:400 28px Arial,sans-serif;fill:#c6d2ec}.tag{font:700 15px Arial,sans-serif;letter-spacing:1.4px;fill:#eef4ff}.foot{font:600 18px Arial,sans-serif;fill:#8190b4}</style>
  <rect width="1280" height="640" fill="url(#bg)"/><circle cx="1110" cy="100" r="330" fill="url(#glow)"/>
  <path d="M930 90h180l70 70v180l-70 70H930l-70-70V160z" fill="none" stroke="#4f7cff" stroke-width="3" opacity=".7"/><circle cx="1020" cy="250" r="58" fill="#0c1730" stroke="#4f7cff" stroke-width="3"/><path d="M986 250h68M1020 216v68" stroke="#4f7cff" stroke-width="8" stroke-linecap="round"/>
  <text x="76" y="86" class="eyebrow">NILHANHUB · AI ENGINEERING</text><text x="76" y="220" class="title">QuietCut</text>
  <foreignObject x="76" y="260" width="780" height="150"><div xmlns="http://www.w3.org/1999/xhtml" style="font:400 28px Arial,sans-serif;color:#c6d2ec;line-height:1.4">Resilient desktop silence cutting with typed IPC and output verification</div></foreignObject>
  <rect x="76" y="492" width="196" height="52" rx="26" fill="#111b38" stroke="#4f7cff" stroke-opacity="0.55"/><text x="174" y="525" text-anchor="middle" class="tag">ELECTRON</text><rect x="298" y="492" width="196" height="52" rx="26" fill="#111b38" stroke="#4f7cff" stroke-opacity="0.55"/><text x="396" y="525" text-anchor="middle" class="tag">TYPESCRIPT</text><rect x="520" y="492" width="196" height="52" rx="26" fill="#111b38" stroke="#4f7cff" stroke-opacity="0.55"/><text x="618" y="525" text-anchor="middle" class="tag">MEDIA</text><text x="76" y="598" class="foot">VERIFIED PORTFOLIO PROJECT · github.com/NilhanHub/quietcut</text></svg>